<svg xmlns="http://www.w3.org/2000/svg" xmlns:xlink="http://www.w3.org/1999/xlink" viewBox="0 0 500 500" width="500" height="500" preserveAspectRatio="xMidYMid meet" style="width: 100%; height: 100%; transform: translate3d(0px, 0px, 0px); content-visibility: visible;"><defs><clipPath id="__lottie_element_2"><rect width="500" height="500" x="0" y="0"></rect></clipPath><clipPath id="__lottie_element_4"><path d="M0,0 L500,0 L500,500 L0,500z"></path></clipPath></defs><g clip-path="url(#__lottie_element_2)"><g clip-path="url(#__lottie_element_4)" transform="matrix(1,0,0,1,0,0)" opacity="1" style="display: block;"><g class="primary design" transform="matrix(20.829999923706055,0,0,20.829999923706055,-4957.498046875,-4957.498046875)" opacity="1" style="display: none;"><g opacity="1" transform="matrix(1,0,0,1,250,249.5)"><path class="primary" fill="rgb(255,255,255)" fill-opacity="1" d=" M7.25,-7.5 C7.25,-7.5 4.75,-7.5 4.75,-7.5 C4.75,-7.5 4.75,-8.75 4.75,-8.75 C4.75,-9.15999984741211 4.409999847412109,-9.5 4,-9.5 C3.5899999141693115,-9.5 3.25,-9.15999984741211 3.25,-8.75 C3.25,-8.75 3.25,-7.5 3.25,-7.5 C3.25,-7.5 -3.25,-7.5 -3.25,-7.5 C-3.25,-7.5 -3.25,-8.75 -3.25,-8.75 C-3.25,-9.15999984741211 -3.5899999141693115,-9.5 -4,-9.5 C-4.409999847412109,-9.5 -4.75,-9.15999984741211 -4.75,-8.75 C-4.75,-8.75 -4.75,-7.5 -4.75,-7.5 C-4.75,-7.5 -7.25,-7.5 -7.25,-7.5 C-8.210000038146973,-7.5 -9,-6.710000038146973 -9,-5.75 C-9,-5.75 -9,7.75 -9,7.75 C-9,8.710000038146973 -8.210000038146973,9.5 -7.25,9.5 C-7.25,9.5 7.25,9.5 7.25,9.5 C8.210000038146973,9.5 9,8.710000038146973 9,7.75 C9,7.75 9,-5.75 9,-5.75 C9,-6.710000038146973 8.210000038146973,-7.5 7.25,-7.5z M-7.25,-6 C-7.25,-6 7.25,-6 7.25,-6 C7.389999866485596,-6 7.5,-5.889999866485596 7.5,-5.75 C7.5,-5.75 7.5,-3.5 7.5,-3.5 C7.5,-3.5 -7.5,-3.5 -7.5,-3.5 C-7.5,-3.5 -7.5,-5.75 -7.5,-5.75 C-7.5,-5.889999866485596 -7.389999866485596,-6 -7.25,-6z M7.25,8 C7.25,8 -7.25,8 -7.25,8 C-7.389999866485596,8 -7.5,7.889999866485596 -7.5,7.75 C-7.5,7.75 -7.5,-2 -7.5,-2 C-7.5,-2 7.5,-2 7.5,-2 C7.5,-2 7.5,7.75 7.5,7.75 C7.5,7.889999866485596 7.389999866485596,8 7.25,8z"></path></g><g opacity="1" transform="matrix(1,0,0,1,246.0050048828125,251)"><path class="primary" fill="rgb(255,255,255)" fill-opacity="1" d=" M-0.004999999888241291,-1 C-0.5550000071525574,-1 -1.0049999952316284,-0.550000011920929 -1.0049999952316284,0 C-1.0049999952316284,0.550000011920929 -0.5550000071525574,1 -0.004999999888241291,1 C-0.004999999888241291,1 0.004999999888241291,1 0.004999999888241291,1 C0.5550000071525574,1 1.0049999952316284,0.550000011920929 1.0049999952316284,0 C0.9950000047683716,-0.550000011920929 0.5450000166893005,-1 -0.004999999888241291,-1z"></path></g><g opacity="1" transform="matrix(1,0,0,1,250,251)"><path class="primary" fill="rgb(255,255,255)" fill-opacity="1" d=" M0,-1 C0,-1 0,-1 0,-1 C-0.5600000023841858,-1 -1,-0.550000011920929 -1,0 C-1,0.550000011920929 -0.550000011920929,1 0,1 C0.550000011920929,1 1,0.550000011920929 1,0 C1,-0.550000011920929 0.5600000023841858,-1 0,-1z"></path></g><g opacity="1" transform="matrix(1,0,0,1,254,251)"><path class="primary" fill="rgb(255,255,255)" fill-opacity="1" d=" M0,-1 C0,-1 0,-1 0,-1 C-0.5600000023841858,-1 -1,-0.550000011920929 -1,0 C-1,0.550000011920929 -0.550000011920929,1 0,1 C0.550000011920929,1 1,0.550000011920929 1,0 C1,-0.550000011920929 0.550000011920929,-1 0,-1z"></path></g><g opacity="1" transform="matrix(1,0,0,1,246.0050048828125,254.5)"><path class="primary" fill="rgb(255,255,255)" fill-opacity="1" d=" M-0.004999999888241291,-1 C-0.5550000071525574,-1 -1.0049999952316284,-0.550000011920929 -1.0049999952316284,0 C-1.0049999952316284,0.550000011920929 -0.5550000071525574,1 -0.004999999888241291,1 C-0.004999999888241291,1 0.004999999888241291,1 0.004999999888241291,1 C0.5550000071525574,1 1.0049999952316284,0.550000011920929 1.0049999952316284,0 C0.9950000047683716,-0.550000011920929 0.5450000166893005,-1 -0.004999999888241291,-1z"></path></g><g opacity="1" transform="matrix(1,0,0,1,250,254.5)"><path class="primary" fill="rgb(255,255,255)" fill-opacity="1" d=" M0,-1 C0,-1 0,-1 0,-1 C-0.5600000023841858,-1 -1,-0.550000011920929 -1,0 C-1,0.550000011920929 -0.550000011920929,1 0,1 C0.550000011920929,1 1,0.550000011920929 1,0 C1,-0.550000011920929 0.5600000023841858,-1 0,-1z"></path></g></g><g class="primary design" transform="matrix(1,0,0,1,0,-12.085830688476562)" opacity="1" style="display: block;"><g opacity="1" transform="matrix(1,0,0,1,250.00399780273438,260.45001220703125)"><path stroke-linecap="round" stroke-linejoin="round" fill-opacity="0" class="primary" stroke="rgb(255,255,255)" stroke-opacity="1" stroke-width="31.3" d=" M-171.7519989013672,-78.12300109863281 C-171.7519989013672,-78.12300109863281 -171.77099609375,-45.007999420166016 -171.77999877929688,-28.450000762939453 C-171.81199645996094,27.908000946044922 -171.87600708007812,140.62399291992188 -171.87600708007812,140.62399291992188 C-171.87600708007812,152.1300048828125 -162.5469970703125,161.45899963378906 -151.04100036621094,161.45899963378906 C-151.04100036621094,161.45899963378906 151.0399932861328,161.45899963378906 151.0399932861328,161.45899963378906 C162.54800415039062,161.45899963378906 171.87600708007812,152.1300048828125 171.87600708007812,140.62399291992188 C171.87600708007812,140.62399291992188 171.93899536132812,29.239999771118164 171.9709930419922,-26.45199966430664 C171.9810028076172,-43.67599868774414 172,-78.12300109863281 172,-78.12300109863281 C172,-78.12300109863281 -171.7519989013672,-78.12300109863281 -171.7519989013672,-78.12300109863281z"></path></g><g opacity="1" transform="matrix(1,0,0,1,250.00399780273438,182.29400634765625)"><path stroke-linecap="round" stroke-linejoin="round" fill-opacity="0" class="primary" stroke="rgb(255,255,255)" stroke-opacity="1" stroke-width="31.3" d=" M171.7519989013672,-0.37599998712539673 C171.7519989013672,-0.37599998712539673 171.8350067138672,-62.62300109863281 171.8350067138672,-62.62300109863281 C171.8350067138672,-74.13099670410156 162.5070037841797,-83.45899963378906 150.99899291992188,-83.45899963378906 C150.99899291992188,-83.45899963378906 -151.08200073242188,-83.45899963378906 -151.08200073242188,-83.45899963378906 C-162.58799743652344,-83.45899963378906 -171.91700744628906,-74.13099670410156 -171.91700744628906,-62.62300109863281 C-171.91700744628906,-62.62300109863281 -172,-0.12600000202655792 -172,-0.12600000202655792"></path></g><g opacity="1" transform="matrix(1,0,0,1,0,0)"><g opacity="1" transform="matrix(1,0,0,1,166.7740020751953,270.83599853515625)"><path class="primary" fill="rgb(255,255,255)" fill-opacity="1" d=" M0.10400000214576721,0 C0.10400000214576721,0 -0.10400000214576721,0 -0.10400000214576721,0"></path><path stroke-linecap="round" stroke-linejoin="round" fill-opacity="0" class="primary" stroke="rgb(255,255,255)" stroke-opacity="1" stroke-width="41.73" d=" M0.10400000214576721,0 C0.10400000214576721,0 -0.10400000214576721,0 -0.10400000214576721,0"></path></g><g opacity="1" transform="matrix(1,0,0,1,250.00399780273438,270.83599853515625)"><path class="primary" fill="rgb(255,255,255)" fill-opacity="1" d=" M-0.10400000214576721,0 C-0.10400000214576721,0 0.10400000214576721,0 0.10400000214576721,0"></path><path stroke-linecap="round" stroke-linejoin="round" fill-opacity="0" class="primary" stroke="rgb(255,255,255)" stroke-opacity="1" stroke-width="41.73" d=" M-0.10400000214576721,0 C-0.10400000214576721,0 0.10400000214576721,0 0.10400000214576721,0"></path></g><g opacity="1" transform="matrix(1,0,0,1,333.2330017089844,270.83599853515625)"><path class="primary" fill="rgb(255,255,255)" fill-opacity="1" d=" M-0.10400000214576721,0 C-0.10400000214576721,0 0.10400000214576721,0 0.10400000214576721,0"></path><path stroke-linecap="round" stroke-linejoin="round" fill-opacity="0" class="primary" stroke="rgb(255,255,255)" stroke-opacity="1" stroke-width="41.73" d=" M-0.10400000214576721,0 C-0.10400000214576721,0 0.10400000214576721,0 0.10400000214576721,0"></path></g></g><g opacity="1" transform="matrix(1,0,0,1,166.7740020751953,343.86199951171875)"><path class="primary" fill="rgb(255,255,255)" fill-opacity="1" d=" M0.10400000214576721,0 C0.10400000214576721,0 -0.10400000214576721,0 -0.10400000214576721,0"></path><path stroke-linecap="round" stroke-linejoin="round" fill-opacity="0" class="primary" stroke="rgb(255,255,255)" stroke-opacity="1" stroke-width="41.73" d=" M0.10400000214576721,0 C0.10400000214576721,0 -0.10400000214576721,0 -0.10400000214576721,0"></path></g><g opacity="1" transform="matrix(1,0,0,1,250.00399780273438,343.86199951171875)"><path class="primary" fill="rgb(255,255,255)" fill-opacity="1" d=" M-0.10400000214576721,0 C-0.10400000214576721,0 0.10400000214576721,0 0.10400000214576721,0"></path><path stroke-linecap="round" stroke-linejoin="round" fill-opacity="0" class="primary" stroke="rgb(255,255,255)" stroke-opacity="1" stroke-width="41.73" d=" M-0.10400000214576721,0 C-0.10400000214576721,0 0.10400000214576721,0 0.10400000214576721,0"></path></g><g opacity="1" transform="matrix(1,0,0,1,250.00399780273438,343.86199951171875)"><path class="primary" fill="rgb(255,255,255)" fill-opacity="1" d=" M-0.3540000021457672,0 C-0.3540000021457672,0 83.35399627685547,0 83.35399627685547,0"></path><path stroke-linecap="round" stroke-linejoin="round" fill-opacity="0" class="primary" stroke="rgb(255,255,255)" stroke-opacity="1" stroke-width="41.73" d=" M-0.3540000021457672,0 C-0.3540000021457672,0 83.35399627685547,0 83.35399627685547,0"></path></g></g><g class="primary design" transform="matrix(1,0,0,1,0,-12.085830688476562)" opacity="1" style="display: block;"><g opacity="1" transform="matrix(1,0,0,1,166.6699981689453,78.1259994506836)"><path stroke-linecap="round" stroke-linejoin="round" fill-opacity="0" class="primary" stroke="rgb(255,255,255)" stroke-opacity="1" stroke-width="31.3" d=" M0,-20.83300018310547 C0,-20.83300018310547 0,20.83300018310547 0,20.83300018310547"></path></g><g opacity="1" transform="matrix(1,0,0,1,333.3370056152344,78.1259994506836)"><path stroke-linecap="round" stroke-linejoin="round" fill-opacity="0" class="primary" stroke="rgb(255,255,255)" stroke-opacity="1" stroke-width="31.3" d=" M0,-20.83300018310547 C0,-20.83300018310547 0,20.83300018310547 0,20.83300018310547"></path></g></g><g class="primary design" transform="matrix(1,0,0,1,250,325.073486328125)" opacity="1" style="display: block;"><path class="primary" fill="rgb(255,255,255)" fill-opacity="1" d=" M198.55,-111 C198.55,-111 198.55,-111 198.55,-111 C198.55,-94.69 185.31,-81.45 169,-81.45 C169,-81.45 -171,-81.45 -171,-81.45 C-187.31,-81.45 -200.55,-94.69 -200.55,-111 C-200.55,-111 -200.55,-111 -200.55,-111 C-200.55,-127.31 -187.31,-140.55 -171,-140.55 C-171,-140.55 169,-140.55 169,-140.55 C185.31,-140.55 198.55,-127.31 198.55,-111z"></path><g opacity="1" transform="matrix(1,0,0,1,-1,-111)"><path class="primary" fill="rgb(255,255,255)" fill-opacity="1" d=" M199.54745483398438,0 C199.54745483398438,0 199.54745483398438,0 199.54745483398438,0 C199.54745483398438,16.307239532470703 186.30723571777344,29.547454833984375 170,29.547454833984375 C170,29.547454833984375 -170,29.547454833984375 -170,29.547454833984375 C-186.30723571777344,29.547454833984375 -199.54745483398438,16.307239532470703 -199.54745483398438,0 C-199.54745483398438,0 -199.54745483398438,0 -199.54745483398438,0 C-199.54745483398438,-16.307239532470703 -186.30723571777344,-29.547454833984375 -170,-29.547454833984375 C-170,-29.547454833984375 170,-29.547454833984375 170,-29.547454833984375 C186.30723571777344,-29.547454833984375 199.54745483398438,-16.307239532470703 199.54745483398438,0z"></path><path stroke-linecap="butt" stroke-linejoin="miter" fill-opacity="0" stroke-miterlimit="4" class="primary" stroke="rgb(255,255,255)" stroke-opacity="1" stroke-width="32" d=" M199.54745483398438,0 C199.54745483398438,0 199.54745483398438,0 199.54745483398438,0 C199.54745483398438,16.307239532470703 186.30723571777344,29.547454833984375 170,29.547454833984375 C170,29.547454833984375 -170,29.547454833984375 -170,29.547454833984375 C-186.30723571777344,29.547454833984375 -199.54745483398438,16.307239532470703 -199.54745483398438,0 C-199.54745483398438,0 -199.54745483398438,0 -199.54745483398438,0 C-199.54745483398438,-16.307239532470703 -186.30723571777344,-29.547454833984375 -170,-29.547454833984375 C-170,-29.547454833984375 170,-29.547454833984375 170,-29.547454833984375 C186.30723571777344,-29.547454833984375 199.54745483398438,-16.307239532470703 199.54745483398438,0z"></path></g></g></g></g></svg>